<svg width="21" height="20" viewBox="0 0 21 20" fill="none" xmlns="http://www.w3.org/2000/svg">
<path d="M6.35678 15.3382C5.09473 15.3382 4.07046 16.3625 4.07046 17.6245C4.07046 18.8866 5.09473 19.9108 6.35678 19.9108C7.61882 19.9108 8.64309 18.8866 8.64309 17.6245C8.64309 16.3625 7.61578 15.3382 6.35678 15.3382ZM6.35678 18.3866C5.93609 18.3866 5.59467 18.0452 5.59467 17.6245C5.59467 17.2038 5.93609 16.8624 6.35678 16.8624C6.77746 16.8624 7.11888 17.2038 7.11888 17.6245C7.11888 18.0452 6.77746 18.3866 6.35678 18.3866ZM15.502 15.3382C14.24 15.3382 13.2157 16.3625 13.2157 17.6245C13.2157 18.8866 14.24 19.9108 15.502 19.9108C16.7641 19.9108 17.7884 18.8866 17.7884 17.6245C17.7884 16.3625 16.761 15.3382 15.502 15.3382ZM15.502 18.3866C15.0814 18.3866 14.7399 18.0452 14.7399 17.6245C14.7399 17.2038 15.0814 16.8624 15.502 16.8624C15.9227 16.8624 16.2642 17.2038 16.2642 17.6245C16.2642 18.0452 15.9227 18.3866 15.502 18.3866ZM20.471 8.00674V8.00064C20.6417 7.13794 20.788 6.41546 20.8246 5.83626C20.8612 5.24182 20.7941 4.65347 20.407 4.14744C20.1692 3.8365 19.8339 3.66274 19.526 3.55299C19.215 3.44325 18.8614 3.37923 18.5078 3.3396C17.8006 3.26034 16.9409 3.26034 16.0965 3.26034H4.49419C4.49114 3.22376 4.48809 3.18718 4.48199 3.1506C4.42712 2.64761 4.30823 2.1873 4.02168 1.76662C3.73208 1.34288 3.34798 1.07462 2.89986 0.855137C2.47308 0.644796 1.92741 0.455793 1.28115 0.227161L1.01594 0.13266C0.61964 -0.00756744 0.183715 0.202774 0.0434877 0.599069C-0.0967398 0.995364 0.113602 1.43129 0.509897 1.57152L0.77511 1.66602C1.45491 1.90379 1.89998 2.06231 2.22616 2.22388C2.53405 2.3763 2.67123 2.49824 2.75963 2.62932C2.85109 2.76345 2.9212 2.9494 2.96083 3.31826C3.00351 3.70541 3.00351 4.2084 3.00351 4.95832V7.72324C3.00351 9.19868 3.01875 10.2626 3.15593 11.0765C3.3053 11.9453 3.601 12.5672 4.15581 13.1525C4.7594 13.7896 5.52455 14.067 6.43603 14.195C7.32008 14.32 8.44799 14.32 9.84112 14.32H15.2368C16.0111 14.32 16.6604 14.32 17.1848 14.256C17.7304 14.1889 18.2243 14.0426 18.6602 13.6921C19.0931 13.3384 19.337 12.8812 19.5107 12.3629C19.6784 11.863 19.8095 11.2259 19.9649 10.4699L20.471 8.00674ZM19.3065 5.74481C19.279 6.19598 19.1602 6.79652 18.9803 7.69885L18.4712 10.162C18.3066 10.9576 18.1969 11.485 18.0658 11.8782C17.8341 12.5702 17.7243 12.6586 16.9988 12.747C16.5903 12.7958 16.0477 12.7989 15.2368 12.7989H9.85027C8.41141 12.7989 7.41153 12.7958 6.65857 12.6891C5.93304 12.5855 5.54894 12.3995 5.27154 12.1069C4.94535 11.7624 4.77159 11.4271 4.66795 10.8235C4.55516 10.165 4.53687 9.24135 4.53687 7.72629C4.53687 7.56167 4.53687 4.94003 4.53687 4.79065H16.1026C16.9714 4.79065 17.7396 4.79065 18.3432 4.85772C18.6389 4.8943 19.3309 5.31498 19.3065 5.74481Z" fill="#8C001A"/>
</svg>
