<svg width="17" height="16" viewBox="0 0 17 16" fill="none" xmlns="http://www.w3.org/2000/svg">
<path d="M8.90112 16C7.09705 16 5.79311 16 4.74371 15.8593C3.56258 15.7008 2.76548 15.357 2.1537 14.7474C1.54416 14.1379 1.20031 13.3385 1.04179 12.1574C0.901123 11.108 0.901123 9.80408 0.901123 8C0.901123 6.19593 0.901123 4.89199 1.04179 3.84259C1.20031 2.66146 1.54416 1.86436 2.1537 1.25258C2.76325 0.640804 3.56258 0.299191 4.74371 0.140664C5.79311 -2.12933e-08 7.09705 0 8.90112 0C10.7052 0 12.0091 -2.12933e-08 13.0585 0.140664C14.2397 0.299191 15.0368 0.643037 15.6485 1.25258C16.2581 1.86213 16.6019 2.66146 16.7605 3.84259C16.9011 4.89199 16.9011 6.19593 16.9011 8C16.9011 9.80408 16.9011 11.108 16.7605 12.1574C16.6019 13.3385 16.2581 14.1356 15.6485 14.7474C15.039 15.357 14.2397 15.7008 13.0585 15.8593C12.0091 16 10.7052 16 8.90112 16ZM8.90112 1.11638C5.55197 1.11638 3.8707 1.11638 2.9441 2.04298C2.01751 2.96958 2.01751 4.65085 2.01751 8C2.01751 11.3491 2.01751 13.0304 2.9441 13.957C3.8707 14.8836 5.55197 14.8836 8.90112 14.8836C12.2503 14.8836 13.9315 14.8836 14.8581 13.957C15.7847 13.0304 15.7847 11.3491 15.7847 8C15.7847 4.65085 15.7847 2.96958 14.8581 2.04298C13.9315 1.11638 12.2503 1.11638 8.90112 1.11638Z" fill="#828080"/>
<path d="M8.90119 10.791C8.59307 10.791 8.343 10.5409 8.343 10.2328V8.55819H6.66842C6.3603 8.55819 6.11023 8.30812 6.11023 8C6.11023 7.69188 6.3603 7.44181 6.66842 7.44181H8.343V5.76724C8.343 5.45912 8.59307 5.20905 8.90119 5.20905C9.20931 5.20905 9.45938 5.45912 9.45938 5.76724V7.44181H11.134C11.4421 7.44181 11.6921 7.69188 11.6921 8C11.6921 8.30812 11.4421 8.55819 11.134 8.55819H9.45938V10.2328C9.45938 10.5409 9.20931 10.791 8.90119 10.791Z" fill="#828080"/>
</svg>
