<svg width="20" height="20" viewBox="0 0 20 20" fill="none" xmlns="http://www.w3.org/2000/svg">
<path d="M10 20C7.74491 20 6.11499 20 4.80324 19.8242C3.32682 19.626 2.33045 19.1962 1.56573 18.4343C0.803796 17.6723 0.373988 16.6732 0.17583 15.1968C-2.66166e-08 13.885 0 12.2551 0 10C0 7.74491 -2.66166e-08 6.11499 0.17583 4.80324C0.373988 3.32682 0.803796 2.33045 1.56573 1.56573C2.32766 0.801005 3.32682 0.373988 4.80324 0.17583C6.11499 -2.66166e-08 7.74491 0 10 0C12.2551 0 13.885 -2.66166e-08 15.1968 0.17583C16.6732 0.373988 17.6695 0.803796 18.4343 1.56573C19.1962 2.32766 19.626 3.32682 19.8242 4.80324C20 6.11499 20 7.74491 20 10C20 12.2551 20 13.885 19.8242 15.1968C19.626 16.6732 19.1962 17.6695 18.4343 18.4343C17.6723 19.1962 16.6732 19.626 15.1968 19.8242C13.885 20 12.2551 20 10 20ZM10 1.39548C5.81356 1.39548 3.71197 1.39548 2.55373 2.55373C1.39548 3.71197 1.39548 5.81356 1.39548 10C1.39548 14.1864 1.39548 16.288 2.55373 17.4463C3.71197 18.6045 5.81356 18.6045 10 18.6045C14.1864 18.6045 16.288 18.6045 17.4463 17.4463C18.6045 16.288 18.6045 14.1864 18.6045 10C18.6045 5.81356 18.6045 3.71197 17.4463 2.55373C16.288 1.39548 14.1864 1.39548 10 1.39548Z" fill="#8C001A"/>
<path d="M9.99999 13.4887C9.61484 13.4887 9.30225 13.1762 9.30225 12.791V10.6978H7.20903C6.82388 10.6978 6.51129 10.3852 6.51129 10C6.51129 9.6149 6.82388 9.30231 7.20903 9.30231H9.30225V7.20909C9.30225 6.82394 9.61484 6.51135 9.99999 6.51135C10.3851 6.51135 10.6977 6.82394 10.6977 7.20909V9.30231H12.7909C13.1761 9.30231 13.4887 9.6149 13.4887 10C13.4887 10.3852 13.1761 10.6978 12.7909 10.6978H10.6977V12.791C10.6977 13.1762 10.3851 13.4887 9.99999 13.4887Z" fill="#8C001A"/>
</svg>
