<svg width="24" height="24" viewBox="0 0 24 24" fill="none" xmlns="http://www.w3.org/2000/svg">
<path d="M12 24C9.29389 24 7.33799 24 5.76389 23.789C3.99219 23.5512 2.79654 23.0354 1.87887 22.1211C0.964555 21.2068 0.448786 20.0078 0.210996 18.2361C-3.194e-08 16.662 0 14.7061 0 12C0 9.29389 -3.194e-08 7.33799 0.210996 5.76389C0.448786 3.99219 0.964555 2.79654 1.87887 1.87887C2.79319 0.961206 3.99219 0.448786 5.76389 0.210996C7.33799 -3.194e-08 9.29389 0 12 0C14.7061 0 16.662 -3.194e-08 18.2361 0.210996C20.0078 0.448786 21.2035 0.964555 22.1211 1.87887C23.0354 2.79319 23.5512 3.99219 23.789 5.76389C24 7.33799 24 9.29389 24 12C24 14.7061 24 16.662 23.789 18.2361C23.5512 20.0078 23.0354 21.2035 22.1211 22.1211C21.2068 23.0354 20.0078 23.5512 18.2361 23.789C16.662 24 14.7061 24 12 24ZM12 1.67457C6.97628 1.67457 4.45437 1.67457 3.06447 3.06447C1.67457 4.45437 1.67457 6.97628 1.67457 12C1.67457 17.0237 1.67457 19.5456 3.06447 20.9355C4.45437 22.3254 6.97628 22.3254 12 22.3254C17.0237 22.3254 19.5456 22.3254 20.9355 20.9355C22.3254 19.5456 22.3254 17.0237 22.3254 12C22.3254 6.97628 22.3254 4.45437 20.9355 3.06447C19.5456 1.67457 17.0237 1.67457 12 1.67457Z" fill="#8C001A"/>
<path d="M14.7898 15.6271C14.5755 15.6271 14.3611 15.5468 14.197 15.3827L12 13.1856L9.79959 15.3827C9.47137 15.7109 8.94221 15.7109 8.61399 15.3827C8.28577 15.0544 8.28577 14.5253 8.61399 14.1971L10.8144 11.9967L8.61734 9.79962C8.28912 9.4714 8.28912 8.94224 8.61734 8.61402C8.94556 8.2858 9.47472 8.2858 9.80294 8.61402L12.0033 10.8144L14.2037 8.61402C14.5319 8.2858 15.0611 8.2858 15.3893 8.61402C15.7175 8.94224 15.7175 9.4714 15.3893 9.79962L13.1856 12L15.386 14.2004C15.7142 14.5286 15.7142 15.0578 15.386 15.386C15.2185 15.5468 15.0042 15.6271 14.7898 15.6271Z" fill="#8C001A"/>
</svg>
