<svg width="16" height="16" viewBox="0 0 16 16" fill="none" xmlns="http://www.w3.org/2000/svg">
<path d="M10.3023 1.19035H5.70175C5.37411 1.19035 5.10657 0.922815 5.10657 0.595177C5.10657 0.267539 5.37411 0 5.70175 0H10.3023C10.6299 0 10.8974 0.267539 10.8974 0.595177C10.8974 0.922815 10.6318 1.19035 10.3023 1.19035Z" fill="#828080"/>
<path d="M6.06039 11.5507C5.73275 11.5507 5.46521 11.2831 5.46521 10.9555V6.58181C5.46521 6.25417 5.73275 5.98663 6.06039 5.98663C6.38803 5.98663 6.65556 6.25417 6.65556 6.58181V10.9555C6.65556 11.2831 6.38996 11.5507 6.06039 11.5507ZM9.82144 11.5507C9.4938 11.5507 9.22627 11.2831 9.22627 10.9555V6.58181C9.22627 6.25417 9.4938 5.98663 9.82144 5.98663C10.1491 5.98663 10.4166 6.25417 10.4166 6.58181V10.9555C10.4166 11.2831 10.151 11.5507 9.82144 11.5507Z" fill="#828080"/>
<path d="M15.304 2.28571H0.595177C0.267539 2.28571 0 2.55324 0 2.88088C0 3.20852 0.267539 3.47606 0.595177 3.47606H1.36096V13.0086C1.36096 14.6584 2.70253 16 4.35236 16H11.5488C13.1986 16 14.5402 14.6584 14.5402 13.0086V3.47606H15.3059C15.6336 3.47606 15.9011 3.20852 15.9011 2.88088C15.9011 2.55324 15.6316 2.28571 15.304 2.28571ZM13.3479 13.0086C13.3479 14.0012 12.5414 14.8077 11.5488 14.8077H4.35236C3.35975 14.8077 2.55325 14.0012 2.55325 13.0086V3.47606H13.3498L13.3479 13.0086Z" fill="#828080"/>
</svg>
